<?xml version="1.0" encoding="UTF-8"?>
<svg id="Warstwa_1" data-name="Warstwa 1" xmlns="http://www.w3.org/2000/svg" viewBox="0 0 100 98.55">
  <path d="M49.7,51.87c.26-.4.52-.78.8-1.18.03-.05.24-.35.1-.14-.14.19.07-.1.12-.17.17-.24.35-.51.54-.75.38-.52.77-1.05,1.15-1.57,1.88-2.51,3.85-4.98,6.15-7.12.07-.07.14-.14.23-.21.24-.23-.1.09.05-.05s.3-.24.44-.37c.3-.24.59-.49.91-.7.14-.1.28-.19.42-.28.07-.05.14-.09.21-.12-.07.05-.33.17-.1.07.3-.16.57-.3.89-.42.68-.26,1.45-1.17.92-1.86-.59-.77-1.81-.52-2.56-.24-1.31.51-2.47,1.38-3.52,2.28-1.29,1.13-2.49,2.35-3.62,3.64-1.95,2.23-3.73,4.6-5.42,7.02-.42.61-.84,1.2-1.24,1.81-.52.78.45,1.43,1.13,1.5.96.1,1.95-.33,2.47-1.13h-.07Z" fill="#1d1e1b"/>
  <path d="M40.95,46c.87-1.39,1.79-2.77,2.75-4.11,1.76-2.49,3.74-5.1,5.84-7.14.56-.54,1.11-1.06,1.74-1.53.14-.1.28-.21.42-.31-.33.23.14-.09.23-.14.14-.09.28-.14.4-.23.16-.1-.19.09-.17.09.1-.03.19-.09.3-.12.45-.19,1.59-.82,1.03-1.43s-1.92-.23-2.49,0c-2.93,1.2-5.21,3.76-7.21,6.13s-3.64,4.69-5.28,7.16c-.35.54-.7,1.06-1.05,1.6-.45.73.4,1.01.99,1.01.77,0,2.06-.28,2.51-1.01h0v.03Z" fill="#1d1e1b"/>
  <path d="M53.6,13.17c-6.71,5.84-12.87,12.49-18.32,19.49-7.33,9.39-16.15,22.82-11.04,35.18,4.02,9.74,16.25,14.68,26.25,12.51,2.54-.56,6.93-2.16,5.82-5.5-1.29-3.88-5.35-7.25-8.2-9.95-5.28-4.98-10.96-9.56-16.74-13.93-4.63-3.48-9.39-7.05-14.53-9.77-1.22-.64-4.65,1.08-2.98,1.97,4.02,2.13,7.79,4.82,11.46,7.51,4.96,3.61,9.79,7.42,14.44,11.43,3.78,3.27,7.63,6.65,10.75,10.59.84,1.05,1.92,2.32,2.16,3.69.14.8-.26,1.01-1.2,1.41-3.47,1.45-8.13.59-11.58-.54-4.91-1.62-9.39-5-11.58-9.77-5.23-11.37,2.46-23.78,9.13-32.71,5.63-7.52,12.18-14.58,19.28-20.74.66-.57.3-1.27-.4-1.53-.87-.31-2.02.14-2.68.71h0l-.02-.03Z" fill="#1d1e1b"/>
  <path d="M77.79,35.13c-7.09,4.86-14.21,10.94-18.93,18.18-2.19,3.36-4.96,9.16-1.92,12.85,2.63,3.19,7.96,2.79,11.6,2.23,3.45-.54,6.86-1.45,10.1-2.7.64-.24,1.46-1.03.96-1.74s-1.86-.42-2.54-.16c-.17.07-.37.14-.54.21.71-.26-.12.03-.28.09-.3.1-.59.19-.87.3-1.64.52-3.29.98-4.96,1.32-2.73.57-7.18,1.45-9.58-.68-3.08-2.73-.42-8.19,1.27-10.89,2.77-4.46,6.65-8.22,10.59-11.65,2.4-2.09,4.91-4.09,7.54-5.89.63-.42.99-1.22.26-1.72s-2.04-.17-2.7.3h0v-.05Z" fill="#1d1e1b"/>
  <path d="M100,49.09c-.12-20.66-13.12-39.19-32.59-46.21-19.61-7.05-42.54-.8-55.91,15.14C-1.9,33.97-3.83,57.08,6.97,74.93c10.8,17.85,32.21,26.67,52.53,22.66,20.33-4.01,36.54-20.34,39.87-40.71.42-2.58.61-5.19.63-7.8,0-1.69-3.8-.96-3.8.42-.12,19.3-11.9,37.24-30.17,44.03-18.43,6.85-39.57.38-51.8-14.77S.32,41.58,10.35,24.75C20.28,8.12,39.92-.76,58.95,3.31c21.53,4.62,37.12,24.26,37.26,46.19,0,1.71,3.81.96,3.8-.42Z" fill="#1d1e1b"/>
</svg>