<?xml version="1.0" encoding="UTF-8"?>
<svg id="Warstwa_2" xmlns="http://www.w3.org/2000/svg" version="1.1" viewBox="0 0 408.2 56.6">
  <!-- Generator: Adobe Illustrator 30.1.0, SVG Export Plug-In . SVG Version: 2.1.1 Build 136)  -->
  <defs>
    <style>
      .st0 {
        fill: #fff;
      }
    </style>
  </defs>
  <g id="Warstwa_1-2">
    <g>
      <g>
        <path class="st0" d="M35.4,22.3c-.2,0-.3.1-.5.2,0,0,0,0,0,0,0,0,0,0,0,0,0,0,0,0,0,0,0,0-.2.1-.2.2-.2.1-.3.3-.5.4,0,0-.2.1-.2.2,0,0,0,0,0,0,0,0,0,0-.1.1-1.6,1.5-2.9,3.2-4.2,5-.1.1-.2.3-.3.4,0,0,0,0,0,0,0,0,0,0,0,0h0s0,0,0,0h0s0,0,0,0c-.2.2-.3.5-.5.7h0c-.3.5-.9.7-1.4.7-.4,0-1-.4-.7-.9,2.2-3.1,4.4-6.7,7.9-8.5.4-.2,1.1-.3,1.5.1.3.4-.1.9-.5,1.1Z"/>
        <path class="st0" d="M30.1,18.7c-.1,0-.2,0-.3.2,0,0,0,0-.2,0,0,0,0,0,0,0,0,0-.1,0-.2.1-2.4,2-4.2,4.7-5.9,7.3h0c-.2.5-2.4.9-2,0,1.4-2.1,6.3-9.8,9.2-8.6.3.4-.3.7-.6.8Z"/>
        <path class="st0" d="M46.1,21c-3.9,2.8-7.8,6-10.4,10.1-1,1.6-2.5,4.7-.7,6.3,1.4,1.2,3.9.7,5.5.4,1-.2,1.9-.5,2.9-.8.2,0,.4-.1.7-.2,0,0,0,0,.2,0h0c.4-.2,1.3-.4,1.6,0,.3.4-.2.9-.6,1-3.3,1.1-9.7,3.3-12.5.3-1.7-2.1-.2-5.5,1.1-7.4,2.7-4.2,6.8-7.7,10.9-10.4h0c.4-.2,1.1-.4,1.6-.1.4.3.2.8-.2,1Z"/>
        <path class="st0" d="M38.7,1.6C13.6-7.1-9.7,19.8,4,43c13.8,22.4,48.7,15.5,53-10.4,2.2-13.2-5.7-26.6-18.3-31ZM37.9,53.7C14.2,62.1-6.7,35.7,5.9,14.2,11.6,4.7,22.9-.4,33.8,1.9c26,5.9,29,42.1,4.1,51.8Z"/>
        <path class="st0" d="M32.5,8c.4-.3.2-.7-.2-.9-.5-.2-1.2,0-1.5.4h0c-6.3,5.7-11.9,11.7-15.8,19.4-1.7-1.2-3.5-2.4-5.3-3.3-.7-.4-2.7.6-1.7,1.1,2.2,1.2,4.2,2.6,6.2,4-4.3,10.4,4.3,19.3,14.8,17.3,1.5-.3,4-1.2,3.3-3.2-.7-2.2-3.1-4.2-4.7-5.7-3.5-3.3-7.2-6.2-11-9.1,3.6-8,9.6-14.3,16-20.1ZM22.8,35.6c1,.9,9.8,8.3,6.7,9-2,.8-4.7.3-6.7-.3-6.2-1.9-9-8.3-7-14.3,2.4,1.8,4.7,3.6,6.9,5.6Z"/>
      </g>
      <g>
        <path class="st0" d="M104.5,33.9l-.5,3.6c0,.3,0,.5-.1.5-5,2.6-12.5,2.2-16.2-2.1-6.8-8.3-.6-18.4,9.6-18.4h0c1.9,0,4.5.3,6.1,1.2.4.3.4.3.5.8l.4,3.6s0,0-.2.1c-.1,0-.2,0-.2,0-.9-3.9-4.2-4.9-7.9-5-5.2-.2-9.1,4-9,9.2,0,4.5,2.3,8.9,6.3,10.9,4.2,2.2,9.6.5,10.9-4.5,0,0,0-.1.2,0,.1,0,.2,0,.2.1Z"/>
        <path class="st0" d="M134.5,24.3c-2.6-7.5-12.3-8.7-18.1-4.1-7.8,6-3.3,19.7,6.9,19.3,7.8.2,14.3-7.7,11.2-15.3ZM131.9,34.6c-1.5,2.9-4.2,4.4-7.4,4.4h0c-8.8.3-12.7-12.3-7.6-18.2,2.5-3,8.3-3.2,11.5-1,4.7,2.8,5.9,10.2,3.6,14.9Z"/>
        <path class="st0" d="M169.3,39c0,.1,0,.2-.1.2-1.2,0-2.6,0-4,0-1.2,0-2.4,0-3.5,0,0,0,0,0,0-.2s0-.2,0-.2c2.2,0,2.7-.2,2.6-2.4,0,0-.6-15.9-.6-15.9l-8,18.4c0,.2-.5.2-.6,0l-8.3-18.2s0,0,0-.1l-.3,15c0,2.3.5,3.1,2.9,3.1,0,0,0,0,0,.2s0,.2,0,.2c-2,0-4.3,0-6.3,0,0,0,0-.4,0-.4,2.1,0,2.6-1,2.7-3.1h0l.3-16.2c-.7-.8-1.6-1.2-2.7-1.2s0,0,0-.2,0-.2,0-.2c.6,0,1.5,0,2,0,.8,0,1.7-.3,2.3.2.4.2,8.1,17.3,8.5,18.1l7.6-17.5c.1-.2.3-.5.5-.6.6-.5,1.2-.1,1.9-.2,1.1,0,1.6,0,2.6,0,0,0,0,0,0,.2s0,.2,0,.2c-2,0-3.2.1-3.2,2.3.1.9.5,17,.9,17.4.6,1,1.5.8,2.8.8h0c0,0,.1,0,.1.2Z"/>
        <path class="st0" d="M202.3,39c0,.1,0,.2-.1.2-1.2,0-2.6,0-4,0-1.2,0-2.4,0-3.5,0,0,0,0,0,0-.2s0-.2,0-.2c2.2,0,2.7-.2,2.6-2.4,0,0-.6-15.9-.6-15.9l-8,18.4c0,.2-.5.2-.6,0l-8.3-18.2s0,0,0-.1l-.3,15c0,2.3.5,3.1,2.9,3.1,0,0,0,0,0,.2s0,.2,0,.2c-2,0-4.3,0-6.3,0,0,0,0-.4,0-.4,2.1,0,2.6-1,2.7-3.1h0l.3-16.2c-.7-.8-1.6-1.2-2.7-1.2s0,0,0-.2,0-.2,0-.2c.6,0,1.5,0,2,0,.8,0,1.7-.3,2.3.2.4.2,8.1,17.3,8.5,18.1l7.6-17.5c.1-.2.3-.5.5-.6.6-.5,1.2-.1,1.8-.2,1.1,0,1.6,0,2.6,0,0,0,0,0,0,.2s0,.2,0,.2c-2,0-3.2.1-3.2,2.3.1.9.5,17,.9,17.4.6,1,1.5.8,2.8.8h0c0,0,.1,0,.1.2Z"/>
        <path class="st0" d="M224.2,34.3c-.2,1.2-.3,3.2-.3,4.4,0,.3-.2.5-.5.5h0s-14.1,0-14.1,0c0,0,0,0,0-.2s0-.2,0-.2c2,0,3.1-.1,3-2.4,0,0,0-15.8,0-15.8.1-2.2-1-2.4-3-2.3,0,0,0-.4,0-.4,0,0,13.5,0,13.5,0,.2,0,.3,0,.3.3v4.1c.1.1-.3.1-.3,0,0-2.2-1.2-3.8-3.3-3.8-1,0-3.4,0-4.2.2-1,.3-1,1.1-1.1,2.1,0,0,0,6.9,0,6.9h4.5c1.9,0,2.8-.4,2.8-2.4,0,0,.4,0,.4,0,0,1.2,0,1.7,0,2.7,0,1.1,0,2,0,3.1,0,0-.4,0-.4,0h0c0-2.1-.8-2.7-2.9-2.8,0,0-4.4,0-4.4,0v7.9c0,1.1,0,1.8,1.1,2.1.9.3,3.9.1,5,.2,2.2,0,3.3-2.2,3.6-4.3,0,0,0-.1.2,0,.1,0,.2,0,.2.1Z"/>
        <path class="st0" d="M254.7,18.1c0,.1,0,.2,0,.2-2.2,0-2.6,1-2.7,3.2,0,0,0,18.1,0,18.1,0,0-.4,0-.4,0l-15.4-19c-.2-.2-.4-.5-.6-.7v15.6c0,2.1.5,3.1,2.6,3.1,0,0,.1,0,.1.2s0,.2-.1.2c-1,0-1.9,0-2.9,0-1,0-2,0-3,0,0,0,0,0,0-.2s0-.2,0-.2c2.2,0,2.5-1,2.6-3.1,0,0,0-16.3,0-16.3-.7-.6-1.6-1-2.5-1-.1,0-.1-.4,0-.4,1.2,0,2.6,0,3.8,0,.3,0,.5.1.6.4-.4,0,14.1,17.6,14.4,18.1v-14.9c0-2.1-.4-3.1-2.5-3.2,0,0,0,0,0-.2s0-.2,0-.2c1,0,1.9.1,2.9.1,1,0,2.1-.1,3-.1,0,0,0,0,0,.2Z"/>
        <path class="st0" d="M280.5,22.9c-3.4-5.2-9.3-5.4-15.1-4.9-1.3,0-2.7,0-3.9-.1,0,0,0,.4,0,.4,2,0,3.2.2,3,2.4,0,0,0,15.8,0,15.8,0,1.1,0,1.9-1.1,2.2-.4.1-1.1.2-2,.2,0,0,0,.4,0,.4,2.8-.1,6.1,0,8.9.1h0c8.7.2,14.7-8.8,10.1-16.4ZM278.5,34.4c-1.8,3.1-4.9,4.5-8.5,4.5-2.6,0-3.6-.4-3.7-2.8,0,0,0-15.3,0-15.3,0-2.5,1.5-2.3,3.9-2.5,2,0,3.7.5,5.1,1.4,4.6,2.9,5.7,10.2,3.2,14.7Z"/>
        <path class="st0" d="M311.7,38.8c-2.3,0-2.9-2.2-4-4.3,0,0-7.9-17-7.9-17,0-.1-.3-.1-.4,0-.8,1.8-7.5,18.5-8.4,19.7-.8,1.1-1.6,1.6-2.9,1.6-.2,0-.2.4,0,.4,1.9,0,4-.2,5.8,0,.6,0,1.2,0,1.9,0s.2,0,.2-.2,0-.2-.2-.2c-3,0-4.1-.9-2.9-3.8,0,0,3.1-7.4,3.1-7.4h6.5l4,8.7c.9,2.2,0,2.4-2.2,2.5-.1,0-.1,0-.1.2s0,.2.1.2c1.3,0,2.1-.2,3.5-.1,1.2,0,2.6.2,3.9.1.2,0,.2-.4,0-.4ZM296.3,27l2.8-6.8,3.1,6.8h-5.9Z"/>
        <path class="st0" d="M334.6,17c-.2,1.8-.3,4.3-.3,6.1,0,0,0,0-.2,0s-.2,0-.2,0c.2-4.9-2.8-4.9-6.5-4.5-1.3.2-1.3.9-1.3,2.1,0,0,0,15.7,0,15.7,0,1.1,0,1.9,1.2,2.2.5.1,1.2.2,2.2.2s0,0,0,.2,0,.2,0,.2c-2.1,0-4.6-.1-6.7,0-.7,0-1.4,0-2,0,0,0,0-.4,0-.4,2.1,0,3.6,0,3.5-2.4,0,0,0-15.8,0-15.8,0-1.3,0-1.9-1.4-2.1-.5,0-1.3,0-2.4,0h0c-3.2,0-3.9,1.5-4.5,4.7,0,0-.4,0-.4,0,0-.3,0-.7.1-1.2.1-1.5.3-3.4.3-4.8,0-.1,0-.2.2-.2s.2,0,.2.2c0,.8,1.3.7,1.8.7,2.7.1,7.8.1,10.7,0,1.4,0,3.2,0,4.5-.2.4-.1.7-.3.8-.7,0-.2.4-.2.4,0Z"/>
        <path class="st0" d="M363.9,24.3c-2.6-7.5-12.3-8.7-18.1-4.1-7.8,6-3.3,19.7,6.9,19.3,7.8.2,14.3-7.7,11.2-15.3ZM361.3,34.6c-1.5,2.9-4.2,4.4-7.4,4.4h0c-8.8.3-12.7-12.3-7.6-18.2,2.5-3,8.3-3.1,11.5-1,4.7,2.8,6,10.2,3.6,14.9Z"/>
        <path class="st0" d="M394.1,38.8c-4.5-.2-8.4-7.2-11.5-11.4,5.1-2.7,4.8-9.9-2.1-9.6h0c-2.5.2-5.4.2-7.9,0-.1,0-.1.4,0,.4,1.3,0,2.2,0,2.8.9.5.3.1,16.5.2,17.3,0,2.2-1.1,2.4-3.1,2.4,0,0,0,.4,0,.4,2.5,0,5.4,0,7.9,0,0,0,.1,0,.1-.2s0-.2-.1-.2c-.9,0-1.5,0-2-.2-1.1-.3-1-1.1-1.1-2.2,0,0,0-8.1,0-8.1.2,0,.5,0,.8,0,1,0,1.9,0,2.8-.3,2.4,3.6,4.8,7.1,7.3,9.8.9.9,1.5,1.4,1.9,1.4h4c.1,0,.1-.4,0-.4ZM379.5,27.6c-.6,0-1.4,0-2-.1v-6.8c0-1.2,0-2,.9-2.4,3.3-.7,5.9,1.2,5.8,4.9,0,3.2-1.4,4.4-4.7,4.4Z"/>
        <path class="st0" d="M405.1,36.5c-.1,2.2,1,2.4,3,2.3,0,0,0,0,0,.2s0,.2,0,.2c-1.3,0-2.6,0-4,0-1.3,0-2.7,0-4,0,0,0-.1,0-.1-.2s0-.2.1-.2c2,0,3.2-.1,3.1-2.4,0,0,0-15.8,0-15.8,0-1.1,0-1.8-1.1-2.2-.5-.1-1.1-.2-2-.2s-.1,0-.1-.2,0-.2.1-.2c1.2,0,2.6.1,4,0,1.4,0,2.7,0,4-.1,0,0,0,0,0,.2s0,.2,0,.2c-.9,0-1.5,0-1.9.2-1,.4-1,1.1-1.1,2.2,0,0,0,15.7,0,15.7h0Z"/>
      </g>
    </g>
  </g>
</svg>